<svg id="flag1" xmlns="http://www.w3.org/2000/svg" xmlns:xlink="http://www.w3.org/1999/xlink" width="20" height="11.667" viewBox="0 0 20 11.667">
  <defs>
    <clipPath id="clip-path">
      <rect id="Rectangle_246" data-name="Rectangle 246" width="20" height="11.667" fill="none"/>
    </clipPath>
  </defs>
  <g id="Group_1712" data-name="Group 1712">
    <g id="Group_1711" data-name="Group 1711" clip-path="url(#clip-path)">
      <rect id="Rectangle_244" data-name="Rectangle 244" width="20" height="11.667" fill="#3d9635"/>
      <g id="Group_1710" data-name="Group 1710">
        <g id="Group_1709" data-name="Group 1709" clip-path="url(#clip-path)">
          <path id="Path_1966" data-name="Path 1966" d="M-3.783,449.565c-.02.272-.044.752.188.8.28.027.125-.474.227-.565.019-.044.055-.045.057.012v.425a.2.2,0,0,0,.159.207c.073-.006.123,0,.151.069q.017.367.034.735s.17.049.178-.413a4.3,4.3,0,0,1-.017-.551c0-.052.067-.056.113-.03.073.052.106.115.22.09.173-.048.277-.132.28-.265a1.174,1.174,0,0,0-.079-.379c.007-.023-.034-.082-.026-.105.031.049.078.044.089,0a.378.378,0,0,0-.149-.231c-.062-.054-.151-.043-.184.07a.615.615,0,0,0,.141.409.4.4,0,0,1,.036.2.109.109,0,0,1-.142-.028s-.138-.1-.138-.126a.492.492,0,0,0-.012-.326.44.44,0,0,0-.091-.179.062.062,0,0,0-.1,0,.62.62,0,0,0,.011.433c.032.094.08.152.058.152-.019.053-.058.041-.087-.02a1.506,1.506,0,0,1-.049-.4c-.012-.105-.026-.329-.095-.386-.042-.057-.1-.03-.126.023a1.947,1.947,0,0,0,.007.3,3.322,3.322,0,0,1,.085.489c.006.231-.133.1-.127-.015a1.049,1.049,0,0,0-.005-.442c-.023-.059-.049-.074-.1-.064s-.157.12-.188.325a1.8,1.8,0,0,0-.038.2c-.015.106-.085.18-.134-.015-.042-.142-.068-.49-.139-.408" transform="translate(9.443 -446.258)" fill="#fff"/>
          <path id="Path_1967" data-name="Path 1967" d="M-2.882,455.193c-.247.121-.486.233-.729.35a.742.742,0,0,1,.577-.468c.15,0,.112.058.152.118" transform="translate(9.303 -450.767)" fill="#fff"/>
          <path id="Path_1968" data-name="Path 1968" d="M-.832,449.144c-.014,0-.029.01-.047.014a.139.139,0,0,0-.1.17c.07.428.116.753.187,1.181.011.05-.031.116-.085.11-.092-.062-.115-.189-.272-.183a.307.307,0,0,0-.26.244.591.591,0,0,0,0,.28.229.229,0,0,0,.26.065c.069-.029.126-.1.15-.081h0c.015.026,0,.249-.326.421-.2.089-.357.11-.442-.052-.053-.1,0-.488-.126-.4-.385.991.9,1.129,1.043.04.009-.03.038-.061.058-.053s.016.015.019.038c-.03.986-.994,1.053-1.157.743a.952.952,0,0,1-.057-.333.168.168,0,0,0-.039-.107c-.039-.029-.092.047-.1.18a1.173,1.173,0,0,0-.012.239c.051.779,1.292.444,1.494-.2a2.139,2.139,0,0,0,.032-.615H-.6c.124.133.3.017.335-.029a.056.056,0,0,1,.086-.008.2.2,0,0,0,.3-.086,2.747,2.747,0,0,0,.041-.369.368.368,0,0,0-.133.055.036.036,0,0,0-.009.018c-.005.035-.011.07-.016.106a.025.025,0,0,1,0,.008.033.033,0,0,1-.012.011c-.022.012-.06,0-.063-.027-.03-.135-.152-.154-.227.056-.05.041-.141.049-.151-.012.012-.141-.045-.16-.158-.093-.036-.279-.073-.545-.109-.824.047,0,.091.033.134-.021a1.564,1.564,0,0,0-.2-.471h0l-.008-.008,0,0,0,0-.007,0a.035.035,0,0,0-.016,0m-.346,1.53a.063.063,0,0,1,.068.043.075.075,0,0,1-.013.074h0c-.009.013-.043.008-.068.008a.066.066,0,0,1-.061-.031c-.008-.026.017-.052.028-.072h0l0-.006a.082.082,0,0,1,.041-.018" transform="translate(8.185 -446.262)" fill="#fff"/>
          <path id="Path_1969" data-name="Path 1969" d="M5.1,449.05a.205.205,0,0,0-.087.024.165.165,0,0,0-.028.219c.048.023.1.072.065.1-.138.147-.5.394-.515.439h0a1.043,1.043,0,0,0,.268,0h0a3.751,3.751,0,0,0,.443-.447c-.019-.016-.036-.028-.055-.045s-.019-.035,0-.053a.145.145,0,0,0,.014-.222.239.239,0,0,0-.109-.022m-.017.13a.074.074,0,0,1,.063.048c.014.031.007.061-.016.066s-.053-.015-.067-.046-.007-.061.016-.067h0" transform="translate(3.115 -446.191)" fill="#fff"/>
          <path id="Path_1970" data-name="Path 1970" d="M-3.885,458.366a.724.724,0,0,0-.073.642.16.16,0,0,0,.155.052.284.284,0,0,0,.1-.276c-.029-.045-.051-.052-.08-.014-.061.123-.086.039-.091-.03a1.578,1.578,0,0,1,.017-.346c.015-.1,0-.068-.031-.028" transform="translate(9.602 -453.239)" fill="#fff"/>
          <path id="Path_1971" data-name="Path 1971" d="M16.543,450.77c-.132-.285-.316-.567-.374-.675s-.5-.748-.564-.82c-.143-.17.233.071-.048-.267-.107-.092-.113-.1-.2-.172-.044-.032-.154-.09-.173.006a.552.552,0,0,0,.01.2.706.706,0,0,0,.113.171,12.8,12.8,0,0,1,1.226,1.971c.06-.029.047-.368.012-.416" transform="translate(-4.968 -445.993)" fill="#fff"/>
          <path id="Path_1972" data-name="Path 1972" d="M18.424,451.927c-.026.029.064.154.182.154a.689.689,0,0,0,.53-.423.752.752,0,0,0,.12-.325,7.116,7.116,0,0,0-.132-1.648.274.274,0,0,1,.005-.115c.013-.015.056,0,.079-.038s-.089-.318-.159-.428c-.025-.049-.033-.081-.075.006a.615.615,0,0,0-.069.31c.094.649.123,1.217.184,1.866a.259.259,0,0,1-.046.191,1.829,1.829,0,0,1-.619.451" transform="translate(-7.43 -446.195)" fill="#fff"/>
          <path id="Path_1973" data-name="Path 1973" d="M29.132,451.837c-.141.082-.141.176-.027.179a.7.7,0,0,0,.589-.281.938.938,0,0,0,.1-.364,8.458,8.458,0,0,0-.107-1.78.9.9,0,0,1-.019-.167c.013-.032.076,0,.1-.034s-.166-.291-.236-.4c-.025-.049-.033-.081-.075.006a.506.506,0,0,0-.041.31,17.068,17.068,0,0,1,.2,2.011.642.642,0,0,1-.039.166,1.321,1.321,0,0,1-.193.225c-.064.047-.2.093-.245.128" transform="translate(-15.485 -446.109)" fill="#fff"/>
          <path id="Path_1974" data-name="Path 1974" d="M28.492,451.182c0-.165,0-.307,0-.43s-.062-.584-.08-.684-.038-.249-.066-.367a1.249,1.249,0,0,1-.024-.208c.012-.033.056,0,.077-.038a1.321,1.321,0,0,0-.186-.517c-.026-.048-.075-.032-.133.046-.055.051-.035.168-.014.28a10.31,10.31,0,0,1,.223,2.208c-.007.06.208-.177.207-.29" transform="translate(-14.738 -446.085)" fill="#fff"/>
          <path id="Path_1975" data-name="Path 1975" d="M24.514,452.744c-.089,0-.274-.173-.329-.273a.186.186,0,0,1,.011-.146c.033-.021.084-.045.121-.022,0,0,.039.055.031.062.048.023.069.01.074-.01s-.015-.055-.015-.093a.1.1,0,0,1,.183-.053.394.394,0,0,1,.049.183c0,.03-.048-.005-.075,0s-.034.038-.036.067c-.005.075-.014.194-.016.285" transform="translate(-11.802 -448.56)" fill="#fff"/>
          <path id="Path_1976" data-name="Path 1976" d="M17.429,451.359a7.839,7.839,0,0,0-.011-.813c-.009-.312-.06-.915-.084-1.016-.028-.19.078.021.063-.09a1.221,1.221,0,0,0-.263-.492c-.04-.056-.038-.068-.1.014a.576.576,0,0,0,.008.381,7.118,7.118,0,0,1,.166,1.11,9.96,9.96,0,0,1,.009,1.176c.067,0,.174-.108.212-.27" transform="translate(-6.354 -446.08)" fill="#fff"/>
          <path id="Path_1977" data-name="Path 1977" d="M26.481,451.012c-.156-.262-.392-.57-.455-.675s-.6-.887-.665-.957c-.195-.2.09-.033-.037-.192a1.526,1.526,0,0,0-.231-.226c-.046-.03-.074-.086-.089.01a1.825,1.825,0,0,0-.007.255.339.339,0,0,0,.077.159,14.516,14.516,0,0,1,1.4,2.037c.059-.031.039-.366,0-.412" transform="translate(-12.426 -446.091)" fill="#fff"/>
          <path id="Path_1978" data-name="Path 1978" d="M6.349,470.5h0a.131.131,0,0,0-.045.242c-1.461,0-3.7-.025-4.183-.025-.269,0-1.119-.032-1.136-.032a.86.86,0,0,0,.792.326c.649,0,3.655-.008,4.51-.008a.3.3,0,0,0,.053.314l0,0,.006,0h0c.057.014.082-.028.1-.057a5.817,5.817,0,0,0,.656,0h0c.032.047.064.092.125.084.107-.023.191-.034.194-.251,0,0-.011-.369-.253-.346-.057.009-.218.025-.218.025-.186-.022-.323-.025-.532-.032.019-.024.053-.123.012-.16a.069.069,0,0,0-.05-.012H6.382l0,0h0c-.01-.015-.017-.053-.023-.063h0m.1.527h0c.213.011.413,0,.627.013a.077.077,0,0,1-.005.107H7.061l-.179-.005a.037.037,0,0,0,0-.01c-.016-.049-.135-.045-.163-.007v.009a.02.02,0,0,0,0,.005.027.027,0,0,0,0,.006,1.659,1.659,0,0,1-.271-.006c-.027-.034-.024-.1.008-.111" transform="translate(5.812 -462.487)" fill="#fff"/>
          <path id="Path_1979" data-name="Path 1979" d="M7.779,448.96c-.142.407.082.852.237.809.112.046.183-.167.229-.4.031-.065.055-.072.071-.038,0,.31.023.379.1.473a.258.258,0,0,0,.337.006l.139-.139a.084.084,0,0,1,.116-.006c.042.039.036.105.127.151a.281.281,0,0,0,.277-.059c.051-.087.063-.117.087-.15.037-.048.1-.027.1-.011s-.042.053-.018.1c.043.032.054.011.079,0,.09-.043.158-.239.158-.239,0-.073-.037-.067-.064-.052s-.037.028-.071.049-.13.036-.172-.03a2.572,2.572,0,0,1-.077-.268c0-.006-.058-.125,0-.133.027,0,.084.02.093-.028.029-.047-.061-.181-.121-.248a.131.131,0,0,0-.2-.006c-.049.046-.042.1-.052.145a.224.224,0,0,0,.046.2.6.6,0,0,1,.11.4.161.161,0,0,1-.144.072c-.038-.008-.1-.024-.133-.269-.025-.185.006-.444-.073-.565-.028-.073-.049-.144-.118-.019a.291.291,0,0,0-.04.278.826.826,0,0,1,.045.432.855.855,0,0,1-.083.117.137.137,0,0,1-.176.024.189.189,0,0,1-.105-.148,2.032,2.032,0,0,0-.016-.477.086.086,0,0,0-.144-.029,1.09,1.09,0,0,0-.262.537c-.04.131-.083.094-.113.041-.074-.069-.079-.609-.168-.52" transform="translate(0.686 -445.877)" fill="#fff"/>
          <path id="Path_1980" data-name="Path 1980" d="M4.71,453.477l0,0h0c-.01.007-.022.023-.046.041-.042.047-.049.08-.047.176,0,.01.079.224.144.374a1.165,1.165,0,0,1,.055.5,1.244,1.244,0,0,1-.509.532.265.265,0,0,1-.213,0h0a.133.133,0,0,1-.057-.121h0a1.2,1.2,0,0,0,.511-.529.541.541,0,0,0,.014-.381.365.365,0,0,0-.087-.176h0c.029-.013.1.041.115.007a.558.558,0,0,0-.147-.27.123.123,0,0,0-.18-.011c-.062.034-.075.158-.045.266.033.081.123.1.186.259h0c0,.01.022.123-.01.168a2,2,0,0,1-.383.36H4v0c0-.007,0-.023,0-.051,0-.049.018-.161.016-.18h0c-.11.071-.147.29-.167.354a5.259,5.259,0,0,0-.779.533c-.1.149.656-.171.743-.209l0,0c.016.018.018.082.068.139a.4.4,0,0,0,.4.131,1.284,1.284,0,0,0,.586-.487c.023-.033.058-.059.091-.033a.916.916,0,0,0,.83.436c.094-.114.049-.17.011-.194-.012-.008-.2-.082-.232-.156s.026-.13.117-.176a4.087,4.087,0,0,0,.766-.147.67.67,0,0,1,.085-.262.13.13,0,0,1,.043-.047h0a.021.021,0,0,0,0-.007l-.042-.025-.833,0a.078.078,0,0,1-.023-.012h0v0h0a.067.067,0,0,1,.027-.016c.2-.027.553-.085.576-.425a.279.279,0,1,0-.548.012c-.007.046.015.135-.031.145-.306.028-.641.22-.652.357H5.041A.08.08,0,0,1,5,454.252a1.633,1.633,0,0,0-.21-.713c-.043-.043-.062-.061-.074-.063H4.71m1.219.3a.113.113,0,0,1,.065.017.085.085,0,0,1,.051.069v.007h0v0l0,.005a.082.082,0,0,1-.087-.008.089.089,0,0,1-.052-.069v0a.026.026,0,0,1,0-.008v0h0l0,0a.036.036,0,0,1,.021-.008m-.775.7h.009a2.607,2.607,0,0,0,.349.039c.1.006.145.082.054.114s-.175.055-.176.184c.012.064.009.1,0,.113l0,0h0l0,0h0c-.023,0-.054-.018-.076-.029a.473.473,0,0,1-.232-.341.086.086,0,0,1,.087-.09" transform="translate(4.235 -449.553)" fill="#fff"/>
          <path id="Path_1981" data-name="Path 1981" d="M.415,449.272c.1.045.276.026.269-.129,0-.013,0-.06-.005-.072-.019-.046-.073-.034-.085.013,0,.016.006.04-.007.049s-.039,0-.038-.039a.075.075,0,0,0-.016-.037.034.034,0,0,0-.021-.005c-.013,0-.013,0-.02.015a.121.121,0,0,0-.007.036c0,.015-.008.021-.019.023s-.009,0-.02-.005-.013-.009-.013-.021a.114.114,0,0,0-.006-.038.037.037,0,0,0-.023-.013c-.053,0-.056.06-.053.083,0,0-.006.112.065.141" transform="translate(6.296 -446.185)" fill="#fff"/>
          <path id="Path_1982" data-name="Path 1982" d="M12.116,454.225c.1.046.324.019.269-.129,0-.014,0-.06-.005-.072-.019-.046-.073-.035-.085.013,0,.015.007.04-.007.048s-.039,0-.038-.039a.075.075,0,0,0-.016-.037.034.034,0,0,0-.021,0c-.013,0-.013,0-.02.015a.121.121,0,0,0-.007.036c0,.015-.008.021-.019.023s-.009,0-.02,0-.014-.009-.014-.021a.119.119,0,0,0-.006-.038A.04.04,0,0,0,12.1,454c-.053,0-.056.06-.053.083,0,0-.006.111.065.141" transform="translate(-2.592 -449.947)" fill="#fff"/>
          <path id="Path_1983" data-name="Path 1983" d="M18.939,452.175c.1.046.276.026.269-.128,0-.014,0-.06,0-.073-.02-.045-.073-.034-.085.013,0,.015.006.041-.007.048s-.038,0-.037-.039a.069.069,0,0,0-.016-.037.028.028,0,0,0-.021-.005c-.013,0-.013,0-.021.015a.156.156,0,0,0-.007.036c0,.015-.007.021-.018.023s-.01,0-.02-.005-.014-.009-.014-.02a.137.137,0,0,0-.006-.038.049.049,0,0,0-.024-.013c-.053,0-.056.06-.053.083,0,0-.006.112.065.141" transform="translate(-7.775 -448.39)" fill="#fff"/>
          <path id="Path_1984" data-name="Path 1984" d="M22.353,451.106a.583.583,0,0,0-.055.568.445.445,0,0,0,.207.235.145.145,0,0,0,.216-.023c.1-.1.1-.362.146-.414a.087.087,0,0,1,.154-.036.378.378,0,0,0,.14.12.235.235,0,0,0,.309.022.356.356,0,0,0,.165-.2,7.519,7.519,0,0,0,.012-1.178c0-.028-.1-.483-.1-.488s-.012-.233-.022-.287c0-.022-.007-.028.016-.025a.132.132,0,0,0,.043.029c.025,0,.047-.038.032-.076l-.229-.422c-.019-.018-.042-.038-.071,0a.168.168,0,0,0-.057.126c.007.1.025.2.031.3l.092.514c.029.366.036.7.065,1.068,0,.155-.052.361-.1.38,0,0-.069.04-.114,0a1.357,1.357,0,0,1-.168-.224.1.1,0,0,0-.163,0,2.24,2.24,0,0,0-.287.541c-.024.037-.091.07-.164,0a.766.766,0,0,1-.1-.528" transform="translate(-10.339 -446.083)" fill="#fff"/>
          <path id="Path_1985" data-name="Path 1985" d="M18.991,449.156a.316.316,0,0,1,.127.295c-.017.105-.063.219-.1.2s.025-.1-.01-.2c-.019-.063-.136-.177-.124-.21-.025-.07.05-.1.1-.089" transform="translate(-7.783 -446.269)" fill="#fff"/>
          <path id="Path_1986" data-name="Path 1986" d="M22.421,451.268a2.6,2.6,0,0,0-.018-.46c-.006-.123-.139-1.119-.166-1.212-.033-.176.13-.024.112-.126-.057-.129-.2-.317-.24-.429-.026-.048-.015-.091-.075-.013a.965.965,0,0,0-.053.438,9.517,9.517,0,0,1,.263,2.107c.067,0,.144-.153.177-.3" transform="translate(-10.13 -446.142)" fill="#fff"/>
          <path id="Path_1987" data-name="Path 1987" d="M29.637,450.193c.078.039.124.257.116.319-.016.114-.057.237-.087.221s.006-.169-.009-.217c-.017-.068-.125-.191-.113-.228a.074.074,0,0,1,.094-.1" transform="translate(-15.877 -447.056)" fill="#fff"/>
          <path id="Path_1988" data-name="Path 1988" d="M5.421,456.826c.075.029.119.189.111.235-.015.084-.055.174-.083.163s.006-.125-.009-.16c-.006-.086-.11-.13-.108-.167-.02-.068.043-.08.089-.07" transform="translate(2.513 -452.095)" fill="#fff"/>
          <path id="Path_1989" data-name="Path 1989" d="M-2.911,448.941c.11.033.117.2.109.244-.015.086-.054.18-.082.168s0-.129-.016-.165-.11-.145-.1-.173c-.021-.058.043-.084.088-.073" transform="translate(8.841 -446.106)" fill="#fff"/>
          <path id="Path_1990" data-name="Path 1990" d="M6.181,452.093a.2.2,0,0,0-.065.263.128.128,0,0,0,.138.044c.083.01.132-.156.132-.156s0-.047-.1.041c-.041.008-.046-.007-.057-.031a.206.206,0,0,1,.013-.13c.015-.041-.017-.06-.065-.031" transform="translate(1.934 -448.492)" fill="#fff"/>
          <path id="Path_1991" data-name="Path 1991" d="M8.693,448.637a.307.307,0,0,0-.13.218c0,.057-.014.057.024.094s.055.036.109.007a.117.117,0,0,0,.053-.077c.013-.065-.069.031-.079-.041s.034-.094.084-.16c0-.044,0-.075-.06-.04" transform="translate(0.058 -445.866)" fill="#fff"/>
          <path id="Path_1992" data-name="Path 1992" d="M11.127,448.8a1.344,1.344,0,0,0-.037.253c-.015.063.066.09.1.009a.783.783,0,0,0,.059-.276c-.017-.1-.082-.093-.125.014" transform="translate(-1.862 -445.94)" fill="#fff"/>
          <path id="Path_1993" data-name="Path 1993" d="M24.618,454.873c.011-.011.456-.327.456-.327.045-.016.035.163.015.162a1.771,1.771,0,0,1-.471.328c-.022.016-.044-.123,0-.162" transform="translate(-12.119 -450.365)" fill="#fff"/>
          <path id="Path_1994" data-name="Path 1994" d="M26.087,455.891c.078.039.109.268.1.331,0,.121-.075.218-.106.2s0-.15-.013-.2c-.017-.068-.084-.195-.072-.231a.076.076,0,0,1,.09-.1" transform="translate(-13.183 -451.385)" fill="#fff"/>
          <path id="Path_1995" data-name="Path 1995" d="M15.336,459.636a.581.581,0,0,1,.128-.11.085.085,0,0,1,.085.015c.007.044-.028.085-.016.144.009.023.016.05.06.04a.321.321,0,0,1,.207-.063c.054,0,.056.095.022.1a1.575,1.575,0,0,0-.282.1.065.065,0,0,1-.082-.01.087.087,0,0,1-.008-.084c0-.047-.015-.072-.055-.067s-.055.026-.07-.008-.008-.037.011-.051" transform="translate(-5.077 -454.143)" fill="#fff"/>
          <path id="Path_1996" data-name="Path 1996" d="M28.021,460.113a.057.057,0,0,1,0,.086c-.031.029-.053.044-.085.073-.014.026-.024.064.021.076.083.023.275-.1.275-.1a.061.061,0,0,0,.018-.068c-.018-.021-.059-.008-.087-.012s-.056-.006-.035-.045a.259.259,0,0,0,.035-.067c.013-.029,0-.048-.045-.063a.382.382,0,0,0-.12,0c-.028.006-.038.019-.043.054,0,.053.034.049.067.07" transform="translate(-14.65 -454.496)" fill="#fff"/>
        </g>
      </g>
    </g>
  </g>
</svg>
